<?xml version="1.0" encoding="UTF-8"?><svg id="Layer_1" xmlns="http://www.w3.org/2000/svg" viewBox="0 0 416.33 366.11"><path d="m355.24,201.46v15.79l-36.84,36.84c.74,5.47,2.88,10.44,6.54,14.41,12.57,13.64,38.19,10.48,57.24-7.06,19.04-17.54,29.16-72.53,29.16-72.53,0,0-32.29,3.24-56.09,12.54Z" style="fill:#80651e;"/><path d="m59.02,217.25v-24.58c-23.56-8.7-54.02-11.76-54.02-11.76,0,0,10.12,54.99,29.16,72.53s44.67,20.7,57.24,7.06c1.81-1.96,3.24-4.18,4.32-6.56l-36.69-36.69Z" style="fill:#80651e;"/><path d="m314.76,257.74l-45.66,45.66c6.91,11.89,22.88,20.62,41.82,21.39,25.87,1.06,71.9-30.67,71.9-30.67,0,0-42.08-34.4-68.06-36.38Z" style="fill:#bf972c;"/><path d="m355.24,138.57h0v73.19h0c10.6-1.08,22.14-6.29,31.93-15.31,19.04-17.54,29.16-72.53,29.16-72.53,0,0-37.11,3.72-61.09,14.65Z" style="fill:#bf972c;"/><path d="m93.39,251.62c-25.88,6.51-59.93,32.09-59.93,32.09,0,0,44.7,33.59,70.59,33.59,16.6,0,31.18-6.19,39.5-15.52l-50.17-50.17Z" style="fill:#bf972c;"/><path d="m271.71,0h-129.16L51.23,84.49v135.99l91.33,91.33h129.16l91.33-91.33V84.49L271.71,0Zm83.53,217.25l-86.76,86.76h-122.7l-86.76-86.76V87.72L145.78,7.8h122.7l86.76,79.92v129.53Z" style="fill:#ffc93b;"/><path d="m59.02,129.66C35.04,119.44,0,115.92,0,115.92c0,0,10.12,54.99,29.16,72.53,9.16,8.44,19.84,13.54,29.86,15.05v-73.84Z" style="fill:#bf972c;"/><polygon points="316.64 156.09 360.35 130.85 360.35 181.33 316.64 156.09" style="fill:#ffc93b;"/><polygon points="331.33 155.75 353.18 143.13 353.18 168.37 331.33 155.75" style="fill:#80651e;"/><polygon points="94.96 156.13 51.24 181.37 51.24 130.9 94.96 156.13" style="fill:#ffc93b;"/><polygon points="80.27 156.48 58.41 169.09 58.41 143.86 80.27 156.48" style="fill:#80651e;"/><path d="m294.5,228.85s6.74,55.5-6.21,77.92-36.46,33.08-52.53,23.8c-16.06-9.27-18.59-34.97-5.65-57.39,12.95-22.42,64.38-44.34,64.38-44.34Z" style="fill:#bf972c;"/><path d="m335.21,347.18s-52.66,18.78-77.38,11.08-40.29-28.3-34.77-46.01c5.52-17.71,30.03-25.83,54.74-18.13,24.72,7.7,57.41,53.06,57.41,53.06Z" style="fill:#80651e;"/><path d="m131.56,234.85s-6.74,55.5,6.21,77.92,36.46,33.08,52.53,23.8c16.06-9.27,18.59-34.97,5.65-57.39-12.95-22.42-64.38-44.34-64.38-44.34Z" style="fill:#bf972c;"/><path d="m90.85,353.18s52.66,18.78,77.38,11.08c24.72-7.7,40.29-28.3,34.77-46.01s-30.03-25.83-54.74-18.13c-24.72,7.7-57.41,53.06-57.41,53.06Z" style="fill:#80651e;"/><polygon points="212.19 241.81 164.7 276.31 182.84 332.14 241.54 332.14 259.68 276.31 212.19 241.81" style="fill:#ffc93b;"/><polygon points="212.19 254.1 176.58 279.98 190.18 321.85 234.21 321.85 247.81 279.98 212.19 254.1" style="fill:#59263e;"/></svg>