<?xml version="1.0" encoding="utf-8"?>
<!-- Generator: Adobe Illustrator 27.3.1, SVG Export Plug-In . SVG Version: 6.00 Build 0)  -->
<svg version="1.1" id="Layer_1" xmlns="http://www.w3.org/2000/svg" xmlns:xlink="http://www.w3.org/1999/xlink" x="0px" y="0px"
	 viewBox="0 0 416.3 366.1" style="enable-background:new 0 0 416.3 366.1;" xml:space="preserve">
<style type="text/css">
	.st0{fill:#80651E;}
	.st1{fill:#BF972C;}
	.st2{fill:#FFC93B;}
	.st3{fill:#59263E;}
</style>
<g>
	<g>
		<path class="st0" d="M355.2,201.5v15.8l-36.8,36.8c0.7,5.5,2.9,10.4,6.5,14.4c12.6,13.6,38.2,10.5,57.2-7.1
			c19-17.5,29.2-72.5,29.2-72.5S379,192.2,355.2,201.5z"/>
		<path class="st0" d="M59,217.3v-24.6C35.5,184,5,180.9,5,180.9s10.1,55,29.2,72.5s44.7,20.7,57.2,7.1c1.8-2,3.2-4.2,4.3-6.6
			L59,217.3z"/>
		<path class="st1" d="M314.8,257.7l-45.7,45.7c6.9,11.9,22.9,20.6,41.8,21.4c25.9,1.1,71.9-30.7,71.9-30.7S340.7,259.7,314.8,257.7
			z"/>
		<path class="st1" d="M355.2,138.6L355.2,138.6v73.2l0,0c10.6-1.1,22.1-6.3,31.9-15.3c19-17.5,29.2-72.5,29.2-72.5
			S379.2,127.6,355.2,138.6z"/>
		<path class="st1" d="M93.4,251.6c-25.9,6.5-59.9,32.1-59.9,32.1s44.7,33.6,70.6,33.6c16.6,0,31.2-6.2,39.5-15.5L93.4,251.6z"/>
		<path class="st2" d="M271.7,0H142.6L51.2,84.5v136l91.3,91.3h129.2l91.3-91.3v-136L271.7,0z M355.2,217.3L268.5,304H145.8
			L59,217.3V87.7l86.8-79.9h122.7l86.8,79.9L355.2,217.3L355.2,217.3z"/>
		<path class="st1" d="M59,129.7C35,119.5,0,116,0,116s10.1,55,29.2,72.5c9.1,8.4,19.8,13.5,29.8,15V129.7z"/>
		<g>
			<polygon class="st2" points="316.6,156.1 360.4,130.9 360.4,181.3 			"/>
			<polygon class="st0" points="331.3,155.7 353.2,143.1 353.2,168.4 			"/>
		</g>
		<g>
			<polygon class="st2" points="95,156.1 51.2,181.4 51.2,130.9 			"/>
			<polygon class="st0" points="80.3,156.5 58.4,169.1 58.4,143.9 			"/>
		</g>
	</g>
	<g>
		<g>
			<path class="st1" d="M294.5,228.9c0,0,6.7,55.5-6.2,77.9s-36.5,33.1-52.5,23.8c-16.1-9.3-18.6-35-5.6-57.4
				S294.5,228.9,294.5,228.9z"/>
		</g>
		<path class="st0" d="M335.2,347.2c0,0-52.7,18.8-77.4,11.1c-24.7-7.7-40.3-28.3-34.8-46s30-25.8,54.7-18.1
			S335.2,347.2,335.2,347.2z"/>
	</g>
	<g>
		<g>
			<path class="st1" d="M131.6,234.9c0,0-6.7,55.5,6.2,77.9s36.5,33.1,52.5,23.8c16.1-9.3,18.6-35,5.6-57.4S131.6,234.9,131.6,234.9
				z"/>
		</g>
		<path class="st0" d="M90.8,353.2c0,0,52.7,18.8,77.4,11.1c24.7-7.7,40.3-28.3,34.8-46s-30-25.8-54.7-18.1S90.8,353.2,90.8,353.2z"
			/>
	</g>
	<polygon class="st2" points="212.2,241.8 164.7,276.3 182.8,332.1 241.5,332.1 259.7,276.3 	"/>
	<polygon class="st3" points="212.2,254.1 176.6,280 190.2,321.8 234.2,321.8 247.8,280 	"/>
</g>
</svg>
