<?xml version="1.0" encoding="utf-8"?>
<!-- Generator: Adobe Illustrator 27.3.1, SVG Export Plug-In . SVG Version: 6.00 Build 0)  -->
<svg version="1.1" id="Layer_1" xmlns="http://www.w3.org/2000/svg" xmlns:xlink="http://www.w3.org/1999/xlink" x="0px" y="0px"
	 viewBox="0 0 416.3 366.1" style="enable-background:new 0 0 416.3 366.1;" xml:space="preserve">
<style type="text/css">
	.st0{fill:#BF972C;}
	.st1{fill:#80651E;}
	.st2{fill:#FFC93B;}
	.st3{fill:#282834;}
</style>
<g>
	<g>
		<path class="st0" d="M416.3,123.9c0,0-10.1,55-29.2,72.5c-19,17.5-44.7,20.7-57.2,7.1c-12.6-13.6-7.3-38.9,11.7-56.5
			C360.7,129.5,416.3,123.9,416.3,123.9z"/>
		<path class="st1" d="M411.3,188.9c0,0-10.1,55-29.2,72.5c-19,17.5-44.7,20.7-57.2,7.1c-12.6-13.6-7.3-38.9,11.7-56.5
			C355.7,194.5,411.3,188.9,411.3,188.9z"/>
		<path class="st0" d="M382.8,294.1c0,0-46,31.7-71.9,30.7c-25.9-1.1-46.2-16.9-45.5-35.5c0.8-18.5,22.3-32.7,48.2-31.6
			C339.5,258.7,382.8,294.1,382.8,294.1z"/>
	</g>
	<g>
		<path class="st0" d="M0,115.9c0,0,10.1,55,29.2,72.5s44.7,20.7,57.2,7.1c12.6-13.6,7.3-38.9-11.7-56.5S0,115.9,0,115.9z"/>
		<path class="st1" d="M5,180.9c0,0,10.1,55,29.2,72.5s44.7,20.7,57.2,7.1c12.6-13.6,7.3-38.9-11.7-56.5S5,180.9,5,180.9z"/>
		<path class="st0" d="M33.5,283.7c0,0,44.7,33.6,70.6,33.6c25.9,0,46.9-15,46.9-33.6c0-18.5-21-33.6-46.9-33.6
			S33.5,283.7,33.5,283.7z"/>
	</g>
	<g>
		<polygon class="st2" points="271.7,0 142.6,0 51.2,84.5 51.2,220.5 142.6,311.8 271.7,311.8 363,220.5 363,84.5 		"/>
		<polygon class="st3" points="268.5,7.8 145.8,7.8 59,87.7 59,217.3 145.8,304 268.5,304 355.2,217.3 355.2,87.7 		"/>
		<g>
			<polygon class="st2" points="316.6,156.1 360.4,130.9 360.4,181.3 			"/>
			<polygon class="st1" points="331.3,155.7 353.2,143.1 353.2,168.4 			"/>
		</g>
		<g>
			<polygon class="st2" points="95,156.1 51.2,181.4 51.2,130.9 			"/>
			<polygon class="st1" points="80.3,156.5 58.4,169.1 58.4,143.9 			"/>
		</g>
	</g>
	<g>
		<g>
			<path class="st0" d="M294.5,228.9c0,0,6.7,55.5-6.2,77.9s-36.5,33.1-52.5,23.8c-16.1-9.3-18.6-35-5.6-57.4
				C243.1,250.8,294.5,228.9,294.5,228.9z"/>
		</g>
		<path class="st1" d="M335.2,347.2c0,0-52.7,18.8-77.4,11.1c-24.7-7.7-40.3-28.3-34.8-46c5.5-17.7,30-25.8,54.7-18.1
			C302.5,301.8,335.2,347.2,335.2,347.2z"/>
	</g>
	<g>
		<g>
			<path class="st0" d="M131.6,234.9c0,0-6.7,55.5,6.2,77.9s36.5,33.1,52.5,23.8c16.1-9.3,18.6-35,5.6-57.4
				C183,256.8,131.6,234.9,131.6,234.9z"/>
		</g>
		<path class="st1" d="M90.8,353.2c0,0,52.7,18.8,77.4,11.1c24.7-7.7,40.3-28.3,34.8-46c-5.5-17.7-30-25.8-54.7-18.1
			S90.8,353.2,90.8,353.2z"/>
	</g>
	<polygon class="st2" points="212.2,241.8 164.7,276.3 182.8,332.1 241.5,332.1 259.7,276.3 	"/>
	<polygon class="st3" points="212.2,254.1 176.6,280 190.2,321.8 234.2,321.8 247.8,280 	"/>
</g>
</svg>
