<?xml version="1.0" encoding="UTF-8"?><svg id="Layer_1" xmlns="http://www.w3.org/2000/svg" xmlns:xlink="http://www.w3.org/1999/xlink" viewBox="0 0 535.5 849"><defs><linearGradient id="linear-gradient" x1="267.86" y1="20" x2="267.86" y2="7" gradientUnits="userSpaceOnUse"><stop offset="0" stop-color="#42210b"/><stop offset="1" stop-color="#8c6239"/></linearGradient><linearGradient id="linear-gradient-2" x1="269.36" y1="1043.44" x2="269.36" y2="671.44" gradientUnits="userSpaceOnUse"><stop offset="0" stop-color="#80651e"/><stop offset=".16" stop-color="#84681f"/><stop offset=".34" stop-color="#927322"/><stop offset=".54" stop-color="#a98527"/><stop offset=".74" stop-color="#ca9f2e"/><stop offset=".95" stop-color="#f3bf38"/><stop offset="1" stop-color="#ffc93b"/></linearGradient></defs><g id="Banner"><rect x="51.36" y="7" width="433" height="13" style="fill:url(#linear-gradient);"/><rect x="47.36" y="2.5" width="5" height="22" rx="2.5" ry="2.5" style="fill:#472a1e;"/><rect x="483.36" y="2.5" width="5" height="22" rx="2.5" ry="2.5" style="fill:#472a1e;"/><path d="m525.18,16.05l-29.03,7.38c-4.07,1.2-8.15-1.85-8.15-6.1v-7.17c0-4.24,4.08-7.3,8.15-6.1l29.03,7.38c2.3.68,2.3,3.93,0,4.61Z" style="fill:#ffc93b;"/><circle cx="530" cy="13.75" r="5.5" style="fill:#ffc93b;"/><path d="m10.32,15.05l29.03,7.38c4.07,1.2,8.15-1.85,8.15-6.1v-7.17c0-4.24-4.08-7.3-8.15-6.1l-29.03,7.38c-2.3.68-2.3,3.93,0,4.61Z" style="fill:#ffc93b;"/><circle cx="5.5" cy="12.75" r="5.5" style="fill:#ffc93b;"/><polygon points="83.36 617.17 108.92 837.83 140.22 801.78 147.14 776.4 154.43 785.42 269.36 653.04 429.79 837.83 455.36 617.17 83.36 617.17" style="fill:#1e1e27;"/><polygon points="101.36 617.17 83.36 617.17 108.92 837.83 122.84 821.8 101.36 617.17" style="fill:#bf972c;"/><polygon points="438.36 617.17 416.77 822.83 429.79 837.83 455.36 617.17 438.36 617.17" style="fill:#bf972c;"/><path d="m455.36,36h-25V7.53c0-4.16-3.37-7.53-7.53-7.53h-.94c-4.16,0-7.53,3.37-7.53,7.53v28.47h-60.72c.26,0,.47-.21.47-.47V8c0-4.42-3.58-8-8-8s-8,3.58-8,8v27.53c0,.26.21.47.47.47h-60.72V7.53c0-4.16-3.37-7.53-7.53-7.53h-.94c-4.16,0-7.53,3.37-7.53,7.53v28.47h-60.25V7.53c0-4.16-3.37-7.53-7.53-7.53h-.94c-4.16,0-7.53,3.37-7.53,7.53v28.47h-60.25V7.53c0-4.16-3.37-7.53-7.53-7.53h-.94c-4.16,0-7.53,3.37-7.53,7.53v28.47h-26v440.79l12.69,6.87-12.69,12.69v182.65l134.86,123.26,7.56-7.56,2.76,16.99,40.83,37.32,186-170v-297.46l-26.83-18.48,26.83.66V36Z" style="fill:url(#linear-gradient-2);"/><polygon points="83.36 599 83.36 628 269.36 798 455.36 628 455.36 599 269.36 769 83.36 599" style="fill:#282834;"/><polygon points="455.36 109 83.36 109 83.36 476.79 96.05 483.66 83.36 496.35 83.36 588 269.36 758 455.36 588 455.36 381.54 428.52 363.07 455.36 363.73 455.36 109" style="fill:#282834;"/><line x1="82.36" y1="89" x2="454.36" y2="89" style="fill:#282834; stroke:#282834; stroke-miterlimit:10; stroke-width:11px;"/></g></svg>