<?xml version="1.0" encoding="UTF-8"?>
<svg id="Layer_1" data-name="Layer 1" xmlns="http://www.w3.org/2000/svg" viewBox="0 0 31 97.19">
  <polyline points="31 97.19 27.13 97.19 0 68.72 0 28.47 27.13 0 31 0" style="fill: none;"/>
  <polygon points="0 28.47 0 68.72 27.13 97.19 31 97.19 31 91.14 6.27 66.41 6.27 57.14 .82 60.29 .82 36.9 6.27 40.04 6.27 30.18 31 5.45 31 0 27.13 0 0 28.47" style="fill: #ffc93b;"/>
  <polygon points="6.27 40.04 21.08 48.59 6.27 57.14 6.27 66.41 31 91.14 31 5.45 6.27 30.18 6.27 40.04" style="fill: #282834;"/>
  <polygon class="inner" points="3.85 42.14 3.85 55.04 15.02 48.59 3.85 42.14" style="fill: #80651e;"/>
  <path d="m6.27,40.04l-5.45-3.15v23.39l5.45-3.15,14.81-8.55-14.81-8.55Zm-2.42,15v-12.9l11.17,6.45-11.17,6.45Z" style="fill: #ffc93b;"/>
</svg>