<?xml version="1.0" encoding="utf-8"?>
<!-- Generator: Adobe Illustrator 27.3.1, SVG Export Plug-In . SVG Version: 6.00 Build 0)  -->
<svg version="1.1" id="Layer_1" xmlns="http://www.w3.org/2000/svg" xmlns:xlink="http://www.w3.org/1999/xlink" x="0px" y="0px"
	 viewBox="0 0 237 97.2" style="enable-background:new 0 0 237 97.2;" xml:space="preserve">
<style type="text/css">
	.st0{fill:#FFC93B;}
	.st1{fill:#744D2A;}
	.st2{fill:#282834;}
	.st3{fill:#604C16;}
</style>
<g>
	<path class="st0" d="M209.9,0H27.1L0,28.5v40.3l27.1,28.5h182.7L237,68.7V28.5L209.9,0z M235.5,60.3l-5.5-3.1v9.3L204.4,92H31.9
		L6.3,66.4v-9.3l-5.5,3.1V36.9L6.3,40v-9.9L31.9,4.6h172.5L230,30.2V40l5.5-3.1V60.3z"/>
	<g>
		<polygon class="st1" points="230,40 230,30.2 204.4,4.6 31.9,4.6 6.3,30.2 6.3,40 21.1,48.6 6.3,57.1 6.3,66.4 31.9,92 204.4,92 
			230,66.4 230,57.1 215.2,48.6 		"/>
	</g>
	<polygon class="st2" points="230,40 230,30.2 204.4,4.6 31.9,4.6 6.3,30.2 6.3,40 21.1,48.6 6.3,57.1 6.3,66.4 31.9,92 204.4,92 
		230,66.4 230,57.1 215.2,48.6 	"/>
	<polygon class="st3" points="232.5,55 232.5,42.1 221.3,48.6 	"/>
	<path class="st0" d="M215.2,48.6l14.8,8.5l5.5,3.1V36.9L230,40L215.2,48.6z M232.5,55l-11.2-6.5l11.2-6.5V55z"/>
	<polygon class="st3" points="3.8,42.1 3.8,55 15,48.6 	"/>
	<path class="st0" d="M6.3,40l-5.5-3.1v23.4l5.5-3.1l14.8-8.5L6.3,40z M3.8,55V42.1L15,48.6L3.8,55z"/>
</g>
</svg>
