<?xml version="1.0" standalone="no"?>
<!DOCTYPE svg PUBLIC "-//W3C//DTD SVG 20010904//EN"
 "http://www.w3.org/TR/2001/REC-SVG-20010904/DTD/svg10.dtd">
<svg version="1.0" xmlns="http://www.w3.org/2000/svg"
 width="700.000000pt" height="700.000000pt" viewBox="0 0 700.000000 700.000000"
 preserveAspectRatio="xMidYMid meet">
<metadata>
Created by potrace 1.14, written by Peter Selinger 2001-2017
</metadata>
<g transform="translate(0.000000,700.000000) scale(0.100000,-0.100000)"
fill="#000000" stroke="none">
<path d="M3383 6263 c-25 -5 -38 -23 -83 -123 -18 -41 -55 -122 -82 -179 -26
-57 -48 -105 -48 -106 0 -2 -13 -32 -29 -67 -16 -35 -52 -115 -81 -178 -29
-63 -63 -140 -77 -170 -14 -30 -58 -127 -98 -215 -40 -88 -84 -185 -98 -215
-13 -30 -35 -77 -47 -105 -13 -27 -36 -78 -51 -112 -56 -122 -91 -198 -104
-228 -7 -16 -26 -57 -40 -90 -15 -33 -37 -82 -50 -110 -74 -159 -105 -227
-105 -230 0 -1 -22 -49 -49 -106 -27 -57 -62 -135 -79 -174 -16 -38 -46 -104
-65 -145 -52 -111 -151 -328 -173 -380 -10 -25 -64 -135 -119 -245 -222 -443
-359 -577 -615 -600 -73 -7 -83 -13 -78 -46 3 -24 3 -24 143 -23 77 0 208 4
290 8 189 11 481 10 650 0 72 -4 193 -8 270 -8 140 -1 140 -1 143 23 5 35 -10
43 -90 47 -295 15 -508 202 -510 448 -1 110 25 213 89 356 14 30 44 98 68 150
23 52 59 130 79 173 20 43 36 80 36 82 0 2 22 51 49 109 l50 105 697 -2 696
-2 105 -205 c151 -294 408 -808 428 -855 28 -66 55 -168 55 -208 0 -97 -83
-146 -257 -151 -52 -2 -68 -16 -59 -51 l7 -27 167 6 c92 4 196 9 232 12 73 6
600 5 670 -1 25 -2 129 -6 232 -10 l188 -6 12 26 c15 33 4 43 -53 51 -76 9
-161 58 -228 129 -126 136 -215 286 -526 900 -92 182 -232 456 -310 610 -78
154 -220 433 -315 620 -95 187 -242 477 -328 645 -85 168 -217 429 -294 580
-77 151 -147 281 -156 288 -16 12 -20 13 -59 5z m-12 -1362 c123 -245 229
-457 235 -471 l11 -26 -453 0 c-250 0 -454 4 -454 8 0 7 95 221 207 468 14 30
47 105 75 165 27 61 64 142 82 180 18 39 39 84 47 102 7 18 17 29 20 25 4 -4
107 -207 230 -451z"/>
<path d="M1130 4989 c-25 -23 -92 -85 -149 -138 -57 -53 -107 -97 -112 -99 -5
-2 -9 -162 -9 -362 l0 -359 -40 14 c-97 34 -383 102 -506 120 -22 4 -46 8 -54
10 -8 2 -37 7 -65 11 -27 3 -58 8 -69 10 -10 2 -43 6 -72 10 l-54 6 6 -34 c4
-18 26 -112 50 -208 89 -366 215 -689 330 -852 35 -50 33 -54 -26 -39 -34 9
-64 14 -180 26 -30 4 -66 8 -78 11 -13 3 -21 1 -18 -4 3 -6 8 -27 12 -48 9
-61 83 -349 116 -449 16 -49 31 -98 33 -108 7 -33 97 -251 132 -322 120 -240
285 -395 522 -489 l80 -32 -32 -19 c-80 -45 -377 -247 -377 -255 0 -5 9 -14
19 -20 11 -5 25 -16 33 -23 13 -12 257 -172 333 -218 253 -153 543 -275 700
-296 122 -16 292 0 403 38 30 10 57 19 60 19 3 0 -48 -53 -114 -118 -148 -146
-245 -253 -383 -427 -105 -131 -104 -119 -13 -148 258 -84 520 -146 717 -172
28 -3 66 -9 85 -12 81 -12 286 -6 363 11 216 49 420 179 546 350 42 57 91 154
91 180 0 8 6 16 13 18 10 4 341 3 358 -1 3 0 17 -22 30 -48 29 -58 174 -206
249 -255 173 -113 331 -161 525 -161 56 0 232 12 255 18 3 0 28 4 55 8 72 11
237 45 330 68 165 42 405 117 405 128 0 9 -165 216 -243 304 -33 37 -58 69
-56 70 2 2 33 9 69 16 184 35 441 143 710 296 47 27 94 53 105 59 47 26 215
139 214 145 -1 11 -246 190 -365 266 l-58 37 25 14 c13 7 30 13 37 14 13 0
114 43 142 60 8 6 29 17 45 26 48 27 146 105 194 154 158 164 314 534 426
1010 15 63 31 130 35 149 l9 33 -57 -5 c-78 -8 -135 -17 -215 -31 l-67 -13 15
21 c100 141 219 412 294 671 27 96 72 265 77 295 3 14 11 52 19 85 13 57 12
80 -3 71 -4 -2 -34 -7 -67 -10 -54 -6 -89 -10 -150 -21 -53 -9 -93 -16 -120
-21 -16 -3 -51 -9 -76 -14 -87 -16 -297 -70 -381 -98 l-84 -28 1 425 1 426
-51 50 c-29 28 -89 84 -135 125 -46 41 -92 85 -102 97 -18 19 -31 21 -117 22
l-96 0 81 -77 c45 -42 127 -119 183 -171 55 -51 101 -101 101 -110 0 -10 -40
-39 -108 -77 -59 -34 -174 -101 -257 -149 -82 -48 -178 -103 -213 -122 -35
-20 -60 -39 -55 -44 7 -7 338 -201 463 -272 124 -69 170 -99 170 -110 0 -7 0
-322 0 -702 l0 -690 -498 -497 -497 -498 0 268 c0 292 -12 513 -29 530 -7 6
-323 -153 -451 -226 -160 -92 -281 -173 -386 -258 l-80 -65 -220 161 c-121 89
-227 164 -234 166 -13 5 -85 -41 -93 -58 -2 -5 -8 -8 -13 -8 -5 0 -17 -7 -26
-15 -10 -8 -101 -75 -203 -149 -181 -132 -185 -134 -205 -116 -37 34 -195 140
-318 213 -122 73 -495 263 -502 255 -23 -22 -38 -612 -21 -814 l7 -91 -603
604 -603 603 -1 731 c0 585 3 734 13 744 7 8 66 43 130 80 65 36 132 74 148
84 51 30 136 79 223 127 45 25 80 49 77 54 -3 4 -132 81 -287 171 -156 89
-289 167 -296 172 -10 8 -6 17 21 41 31 28 101 92 287 265 l55 51 -95 0 -95
-1 -45 -40z"/>
</g>
</svg>
